<mxfile host="app.diagrams.net" modified="2020-05-19T05:33:56.323Z" agent="5.0 (Windows NT 10.0; Win64; x64) AppleWebKit/537.36 (KHTML, like Gecko) Chrome/81.0.4044.138 Safari/537.36" etag="KobkvwtCYm3Eax9eC_i7" version="13.1.2" type="github">
  <diagram id="q70bziQ056zSovkO_Rw-" name="Page-1">
    <mxGraphModel dx="1038" dy="499" grid="1" gridSize="10" guides="1" tooltips="1" connect="1" arrows="1" fold="1" page="1" pageScale="1" pageWidth="827" pageHeight="1169" math="0" shadow="0">
      <root>
        <mxCell id="0" />
        <mxCell id="1" parent="0" />
        <mxCell id="WoJkxqJssHStP3WLanN2-1" value="" style="rounded=1;whiteSpace=wrap;html=1;fillColor=#f9f7ed;strokeColor=#36393d;" parent="1" vertex="1">
          <mxGeometry x="474.65999999999997" y="40" width="270" height="130" as="geometry" />
        </mxCell>
        <mxCell id="WoJkxqJssHStP3WLanN2-2" value="&lt;font style=&quot;font-size: 18px&quot;&gt;Traffic Rating Road B&lt;/font&gt;" style="rounded=1;whiteSpace=wrap;html=1;" parent="1" vertex="1">
          <mxGeometry x="474.65999999999997" y="110" width="110" height="60" as="geometry" />
        </mxCell>
        <mxCell id="WoJkxqJssHStP3WLanN2-3" value="&lt;font style=&quot;font-size: 18px&quot;&gt;Traffic Model&lt;/font&gt;" style="rounded=1;whiteSpace=wrap;html=1;" parent="1" vertex="1">
          <mxGeometry x="654.66" y="40" width="90" height="130" as="geometry" />
        </mxCell>
        <mxCell id="WoJkxqJssHStP3WLanN2-4" value="&lt;font style=&quot;font-size: 18px&quot;&gt;Traffic Rating Road A&lt;/font&gt;" style="rounded=1;whiteSpace=wrap;html=1;" parent="1" vertex="1">
          <mxGeometry x="474.65999999999997" y="40" width="110" height="60" as="geometry" />
        </mxCell>
        <mxCell id="WoJkxqJssHStP3WLanN2-5" value="" style="endArrow=classic;html=1;shadow=0;entryX=0;entryY=0.5;entryDx=0;entryDy=0;exitX=1;exitY=0.5;exitDx=0;exitDy=0;shape=flexArrow;fillColor=#f8cecc;strokeColor=#b85450;" parent="1" source="WoJkxqJssHStP3WLanN2-4" target="WoJkxqJssHStP3WLanN2-3" edge="1">
          <mxGeometry width="50" height="50" relative="1" as="geometry">
            <mxPoint x="584.66" y="-10" as="sourcePoint" />
            <mxPoint x="634.66" y="-60" as="targetPoint" />
          </mxGeometry>
        </mxCell>
        <mxCell id="WoJkxqJssHStP3WLanN2-6" value="" style="endArrow=classic;html=1;shadow=0;exitX=1;exitY=0.5;exitDx=0;exitDy=0;entryX=0;entryY=0.5;entryDx=0;entryDy=0;shape=flexArrow;fillColor=#f8cecc;strokeColor=#b85450;" parent="1" source="WoJkxqJssHStP3WLanN2-2" target="WoJkxqJssHStP3WLanN2-3" edge="1">
          <mxGeometry width="50" height="50" relative="1" as="geometry">
            <mxPoint x="964.66" y="220" as="sourcePoint" />
            <mxPoint x="1014.66" y="170" as="targetPoint" />
          </mxGeometry>
        </mxCell>
        <mxCell id="WoJkxqJssHStP3WLanN2-7" value="" style="rounded=0;whiteSpace=wrap;html=1;rotation=45;fillColor=#eeeeee;strokeColor=#36393d;" parent="1" vertex="1">
          <mxGeometry x="20" y="274" width="553.32" height="60" as="geometry" />
        </mxCell>
        <mxCell id="WoJkxqJssHStP3WLanN2-8" value="" style="rounded=0;whiteSpace=wrap;html=1;rotation=45;fillColor=#eeeeee;strokeColor=#36393d;" parent="1" vertex="1">
          <mxGeometry x="65.74000000000001" y="383.87" width="236.21" height="60" as="geometry" />
        </mxCell>
        <mxCell id="WoJkxqJssHStP3WLanN2-9" value="&lt;font style=&quot;font-size: 18px&quot;&gt;Vehicle&lt;/font&gt;" style="rounded=1;whiteSpace=wrap;html=1;arcSize=11;fillColor=#f9f7ed;strokeColor=#36393d;" parent="1" vertex="1">
          <mxGeometry x="138.84" y="399.87" width="90" height="44" as="geometry" />
        </mxCell>
        <mxCell id="WoJkxqJssHStP3WLanN2-13" value="&lt;font style=&quot;font-size: 18px&quot;&gt;Vehicle&lt;/font&gt;" style="rounded=1;whiteSpace=wrap;html=1;arcSize=11;fillColor=#f9f7ed;strokeColor=#36393d;" parent="1" vertex="1">
          <mxGeometry x="147.66" y="170" width="90" height="44" as="geometry" />
        </mxCell>
        <mxCell id="WoJkxqJssHStP3WLanN2-14" value="&lt;font style=&quot;font-size: 18px&quot;&gt;Vehicle&lt;/font&gt;" style="rounded=1;whiteSpace=wrap;html=1;arcSize=11;fillColor=#f9f7ed;strokeColor=#36393d;" parent="1" vertex="1">
          <mxGeometry x="257.65999999999997" y="282" width="90" height="44" as="geometry" />
        </mxCell>
        <mxCell id="WoJkxqJssHStP3WLanN2-15" value="&lt;font style=&quot;font-size: 18px&quot;&gt;Vehicle&lt;/font&gt;" style="rounded=1;whiteSpace=wrap;html=1;arcSize=11;fillColor=#f9f7ed;strokeColor=#36393d;" parent="1" vertex="1">
          <mxGeometry x="367.65999999999997" y="400" width="90" height="44" as="geometry" />
        </mxCell>
        <mxCell id="WoJkxqJssHStP3WLanN2-16" value="&lt;font color=&quot;#ff3333&quot; style=&quot;font-size: 14px&quot;&gt;Road A&lt;/font&gt;" style="text;html=1;strokeColor=none;fillColor=none;align=center;verticalAlign=middle;whiteSpace=wrap;rounded=0;" parent="1" vertex="1">
          <mxGeometry x="97.66" y="115" width="50" height="20" as="geometry" />
        </mxCell>
        <mxCell id="WoJkxqJssHStP3WLanN2-17" value="&lt;font color=&quot;#ff3333&quot; style=&quot;font-size: 14px&quot;&gt;Road B&lt;/font&gt;" style="text;html=1;strokeColor=none;fillColor=none;align=center;verticalAlign=middle;whiteSpace=wrap;rounded=0;" parent="1" vertex="1">
          <mxGeometry x="92.32000000000001" y="340" width="50" height="20" as="geometry" />
        </mxCell>
        <mxCell id="WoJkxqJssHStP3WLanN2-18" value="&lt;span style=&quot;font-size: 14px&quot;&gt;Road and Movement data with timestamp&lt;/span&gt;" style="rounded=0;whiteSpace=wrap;html=1;fillColor=#dae8fc;strokeColor=#6c8ebf;" parent="1" vertex="1">
          <mxGeometry x="145.32" y="324.87" width="112.34" height="59" as="geometry" />
        </mxCell>
        <mxCell id="WoJkxqJssHStP3WLanN2-19" value="&lt;span style=&quot;font-size: 14px&quot;&gt;Road and Movement data with timestamp&lt;/span&gt;" style="rounded=0;whiteSpace=wrap;html=1;fillColor=#dae8fc;strokeColor=#6c8ebf;" parent="1" vertex="1">
          <mxGeometry x="228.84" y="30" width="111.16" height="64" as="geometry" />
        </mxCell>
        <mxCell id="WoJkxqJssHStP3WLanN2-20" value="&lt;span style=&quot;font-size: 14px&quot;&gt;Road and Movement data with timestamp&lt;/span&gt;" style="rounded=0;whiteSpace=wrap;html=1;fillColor=#dae8fc;strokeColor=#6c8ebf;" parent="1" vertex="1">
          <mxGeometry x="347.66" y="220" width="110" height="60" as="geometry" />
        </mxCell>
        <mxCell id="WoJkxqJssHStP3WLanN2-22" value="&lt;span style=&quot;font-size: 14px&quot;&gt;Road and Movement data with timestamp&lt;/span&gt;" style="rounded=0;whiteSpace=wrap;html=1;fillColor=#dae8fc;strokeColor=#6c8ebf;" parent="1" vertex="1">
          <mxGeometry x="270" y="140" width="110" height="60" as="geometry" />
        </mxCell>
        <mxCell id="WoJkxqJssHStP3WLanN2-23" value="" style="curved=1;endArrow=classic;html=1;exitX=0.25;exitY=1;exitDx=0;exitDy=0;fillColor=#1ba1e2;strokeColor=#006EAF;" parent="1" source="WoJkxqJssHStP3WLanN2-18" edge="1">
          <mxGeometry width="50" height="50" relative="1" as="geometry">
            <mxPoint x="37.66" y="280" as="sourcePoint" />
            <mxPoint x="167.66" y="400" as="targetPoint" />
            <Array as="points">
              <mxPoint x="167.66" y="390" />
            </Array>
          </mxGeometry>
        </mxCell>
        <mxCell id="WoJkxqJssHStP3WLanN2-24" value="" style="curved=1;endArrow=classic;html=1;entryX=0;entryY=0.5;entryDx=0;entryDy=0;exitX=0.5;exitY=0;exitDx=0;exitDy=0;fillColor=#1ba1e2;strokeColor=#006EAF;" parent="1" source="WoJkxqJssHStP3WLanN2-18" target="WoJkxqJssHStP3WLanN2-14" edge="1">
          <mxGeometry width="50" height="50" relative="1" as="geometry">
            <mxPoint x="137.66" y="300" as="sourcePoint" />
            <mxPoint x="187.66" y="250" as="targetPoint" />
            <Array as="points">
              <mxPoint x="207.66" y="300" />
            </Array>
          </mxGeometry>
        </mxCell>
        <mxCell id="WoJkxqJssHStP3WLanN2-25" value="" style="curved=1;endArrow=classic;html=1;exitX=1;exitY=0.25;exitDx=0;exitDy=0;fillColor=#1ba1e2;strokeColor=#006EAF;" parent="1" source="WoJkxqJssHStP3WLanN2-19" target="WoJkxqJssHStP3WLanN2-4" edge="1">
          <mxGeometry width="50" height="50" relative="1" as="geometry">
            <mxPoint x="207.66" y="110" as="sourcePoint" />
            <mxPoint x="257.65999999999997" y="60" as="targetPoint" />
            <Array as="points">
              <mxPoint x="397.65999999999997" y="40" />
            </Array>
          </mxGeometry>
        </mxCell>
        <mxCell id="WoJkxqJssHStP3WLanN2-32" value="" style="curved=1;endArrow=classic;html=1;entryX=0.333;entryY=0.227;entryDx=0;entryDy=0;entryPerimeter=0;exitX=0.5;exitY=1;exitDx=0;exitDy=0;fillColor=#1ba1e2;strokeColor=#006EAF;" parent="1" source="WoJkxqJssHStP3WLanN2-20" target="WoJkxqJssHStP3WLanN2-15" edge="1">
          <mxGeometry width="50" height="50" relative="1" as="geometry">
            <mxPoint x="547.66" y="330" as="sourcePoint" />
            <mxPoint x="597.66" y="280" as="targetPoint" />
            <Array as="points">
              <mxPoint x="387.65999999999997" y="340" />
            </Array>
          </mxGeometry>
        </mxCell>
        <mxCell id="WoJkxqJssHStP3WLanN2-33" value="" style="curved=1;endArrow=classic;html=1;exitX=0.5;exitY=0;exitDx=0;exitDy=0;entryX=0.001;entryY=0.623;entryDx=0;entryDy=0;fillColor=#1ba1e2;strokeColor=#006EAF;entryPerimeter=0;" parent="1" source="WoJkxqJssHStP3WLanN2-20" target="WoJkxqJssHStP3WLanN2-4" edge="1">
          <mxGeometry width="50" height="50" relative="1" as="geometry">
            <mxPoint x="517.66" y="320" as="sourcePoint" />
            <mxPoint x="567.66" y="270" as="targetPoint" />
            <Array as="points">
              <mxPoint x="417.65999999999997" y="140" />
            </Array>
          </mxGeometry>
        </mxCell>
        <mxCell id="WoJkxqJssHStP3WLanN2-34" value="" style="curved=1;endArrow=classic;html=1;entryX=0.5;entryY=0;entryDx=0;entryDy=0;exitX=0;exitY=0.5;exitDx=0;exitDy=0;fillColor=#1ba1e2;strokeColor=#006EAF;" parent="1" source="WoJkxqJssHStP3WLanN2-19" target="WoJkxqJssHStP3WLanN2-13" edge="1">
          <mxGeometry width="50" height="50" relative="1" as="geometry">
            <mxPoint x="157.66" y="100" as="sourcePoint" />
            <mxPoint x="207.66" y="50" as="targetPoint" />
            <Array as="points">
              <mxPoint x="187.66" y="90" />
            </Array>
          </mxGeometry>
        </mxCell>
        <mxCell id="WoJkxqJssHStP3WLanN2-35" value="" style="curved=1;endArrow=classic;html=1;entryX=0.5;entryY=0;entryDx=0;entryDy=0;exitX=0.25;exitY=1;exitDx=0;exitDy=0;fillColor=#1ba1e2;strokeColor=#006EAF;" parent="1" source="WoJkxqJssHStP3WLanN2-22" target="WoJkxqJssHStP3WLanN2-14" edge="1">
          <mxGeometry width="50" height="50" relative="1" as="geometry">
            <mxPoint x="87.66" y="280" as="sourcePoint" />
            <mxPoint x="137.66" y="230" as="targetPoint" />
            <Array as="points">
              <mxPoint x="287.65999999999997" y="230" />
            </Array>
          </mxGeometry>
        </mxCell>
        <mxCell id="WoJkxqJssHStP3WLanN2-36" value="" style="curved=1;endArrow=classic;html=1;exitX=0.5;exitY=0;exitDx=0;exitDy=0;fillColor=#1ba1e2;strokeColor=#006EAF;" parent="1" source="WoJkxqJssHStP3WLanN2-22" edge="1">
          <mxGeometry width="50" height="50" relative="1" as="geometry">
            <mxPoint x="97.66" y="280" as="sourcePoint" />
            <mxPoint x="475" y="70" as="targetPoint" />
            <Array as="points">
              <mxPoint x="367.65999999999997" y="90" />
            </Array>
          </mxGeometry>
        </mxCell>
        <mxCell id="WoJkxqJssHStP3WLanN2-37" value="" style="curved=1;endArrow=classic;html=1;entryX=0;entryY=0.25;entryDx=0;entryDy=0;exitX=0;exitY=0.5;exitDx=0;exitDy=0;fillColor=#1ba1e2;strokeColor=#006EAF;" parent="1" source="WoJkxqJssHStP3WLanN2-22" target="WoJkxqJssHStP3WLanN2-14" edge="1">
          <mxGeometry width="50" height="50" relative="1" as="geometry">
            <mxPoint x="37.66" y="270" as="sourcePoint" />
            <mxPoint x="87.66" y="220" as="targetPoint" />
            <Array as="points">
              <mxPoint x="237.66" y="210" />
            </Array>
          </mxGeometry>
        </mxCell>
        <mxCell id="WoJkxqJssHStP3WLanN2-38" value="" style="curved=1;endArrow=classic;html=1;entryX=0;entryY=0.5;entryDx=0;entryDy=0;exitX=1;exitY=0.5;exitDx=0;exitDy=0;fillColor=#1ba1e2;strokeColor=#006EAF;" parent="1" source="WoJkxqJssHStP3WLanN2-22" target="WoJkxqJssHStP3WLanN2-2" edge="1">
          <mxGeometry width="50" height="50" relative="1" as="geometry">
            <mxPoint x="27.659999999999997" y="280" as="sourcePoint" />
            <mxPoint x="77.66" y="230" as="targetPoint" />
            <Array as="points">
              <mxPoint x="407.65999999999997" y="130" />
            </Array>
          </mxGeometry>
        </mxCell>
      </root>
    </mxGraphModel>
  </diagram>
</mxfile>
